Coordinates
version=1
nRows=89
nColumns=19
inDegrees=yes

Units are S.I. units (second, meters, Newtons, ...)
Angles are in degrees.

endheader
time	1_Force_X	1_Force_Y	1_Force_Z	1_Moment_X	1_Moment_Y	1_Moment_Z	1_COP_X	1_COP_Y	1_COP_Z	2_Force_X	2_Force_Y	2_Force_Z	2_Moment_X	2_Moment_Y	2_Moment_Z	2_COP_X	2_COP_Y	2_COP_Z
0.6900	15.979	3.915	-3.124	0.473	0.000	0.110	-3.782	3.086	-2.062	-0.216	0.000	0.248	0.00000	-3.99291	0.00000	0.00000	9.23998	0.00000
0.6925	16.154	3.911	-3.081	0.494	0.000	0.086	-3.563	2.227	-2.191	-0.213	0.000	0.253	0.00000	-4.29702	0.00000	0.00000	10.56580	0.00000
0.6950	15.936	3.046	-3.211	0.271	0.000	0.194	-3.695	1.712	-2.063	-0.212	0.000	0.253	0.00000	-5.07800	0.00000	0.00000	13.73991	0.00000
0.6975	16.024	3.916	-2.947	0.494	0.000	0.138	-3.475	2.399	-2.147	-0.215	0.000	0.251	0.00000	-3.76538	0.00000	0.00000	9.81290	0.00000
0.7000	15.811	4.270	-2.858	0.518	0.000	0.157	-3.736	3.254	-2.542	-0.214	0.000	0.248	0.00000	-3.10615	0.00000	0.00000	7.79772	0.00000
0.7025	15.850	5.136	-2.904	1.080	0.000	-0.118	-3.735	3.253	-2.585	-0.215	0.000	0.249	0.00000	-2.93570	0.00000	0.00000	7.80068	0.00000
0.7050	15.721	4.268	-3.080	0.485	0.000	0.076	-3.781	3.768	-2.407	-0.214	0.000	0.251	0.00000	-3.70164	0.00000	0.00000	7.66171	0.00000
0.7075	15.671	4.614	-3.168	0.712	0.000	-0.007	-3.780	3.083	-2.455	-0.213	0.000	0.249	0.00000	-3.35097	0.00000	0.00000	8.33192	0.00000
0.7100	15.586	4.621	-2.900	0.704	0.000	0.078	-3.780	3.254	-2.453	-0.214	0.000	0.250	0.00000	-2.88443	0.00000	0.00000	8.21331	0.00000
0.7125	15.675	4.446	-2.901	0.595	0.000	0.084	-3.955	3.083	-2.455	-0.213	0.000	0.251	0.00000	-3.22795	0.00000	0.00000	8.93130	0.00000
0.7150	15.757	4.436	-3.080	0.692	0.000	-0.023	-3.477	1.712	-1.976	-0.213	0.000	0.251	0.00000	-3.84400	0.00000	0.00000	12.81756	0.00000
0.7175	15.761	3.920	-2.989	0.464	0.000	0.145	-3.697	2.228	-1.845	-0.214	0.000	0.250	0.00000	-3.65137	0.00000	0.00000	11.75240	0.00000
0.7200	15.630	4.618	-2.857	0.695	0.000	0.011	-3.823	2.738	-2.585	-0.214	0.000	0.252	0.00000	-3.35383	0.00000	0.00000	9.03883	0.00000
0.7225	15.545	4.622	-2.724	0.677	0.000	0.070	-3.692	3.426	-2.496	-0.215	0.000	0.249	0.00000	-3.04955	0.00000	0.00000	7.70344	0.00000
0.7250	15.891	4.262	-2.816	0.609	0.000	0.004	-3.345	2.397	-2.192	-0.214	0.000	0.250	0.00000	-4.24397	0.00000	0.00000	9.07813	0.00000
0.7275	15.892	4.790	-3.079	0.822	0.000	0.030	-3.998	3.769	-2.541	-0.214	0.000	0.249	0.00000	-2.81572	0.00000	0.00000	7.80555	0.00000
0.7300	15.892	4.438	-2.860	0.646	0.000	-0.019	-3.651	1.195	-2.151	-0.211	0.000	0.254	0.00000	-3.99892	0.00000	0.00000	17.44737	0.00000
0.7325	15.318	5.315	-3.209	1.280	0.000	-0.187	-3.736	2.910	-2.454	-0.215	0.000	0.250	0.00000	-2.55733	0.00000	0.00000	8.66134	0.00000
0.7350	15.541	4.623	-2.811	0.723	0.000	0.068	-4.042	3.082	-2.455	-0.214	0.000	0.250	0.00000	-2.90654	0.00000	0.00000	9.18034	0.00000
0.7375	15.409	5.485	-2.815	1.541	0.000	-0.390	-3.781	3.252	-2.409	-0.215	0.000	0.251	0.00000	-2.98988	0.00000	0.00000	8.36229	0.00000
0.7400	15.541	4.618	-2.902	0.711	0.000	-0.013	-3.822	4.283	-2.626	-0.217	0.000	0.248	0.00000	-3.45394	0.00000	0.00000	6.87202	0.00000
0.7425	15.497	4.095	-2.857	0.523	0.000	0.094	-3.563	2.225	-2.149	-0.215	0.000	0.251	0.00000	-3.79014	0.00000	0.00000	10.59861	0.00000
0.7450	15.713	4.614	-2.858	0.776	0.000	-0.057	-3.563	3.428	-2.145	-0.217	0.000	0.249	0.00000	-3.70084	0.00000	0.00000	8.10148	0.00000
0.7475	15.671	4.092	-2.859	0.518	0.000	0.022	-3.477	2.741	-1.972	-0.215	0.000	0.250	0.00000	-4.47110	0.00000	0.00000	9.35509	0.00000
0.7500	15.717	3.919	-2.770	0.469	0.000	0.090	-3.390	2.743	-1.885	-0.214	0.000	0.249	0.00000	-4.31860	0.00000	0.00000	9.23369	0.00000
0.7525	15.808	4.265	-2.551	0.570	0.000	0.028	-3.562	2.570	-2.192	-0.216	0.000	0.249	0.00000	-4.23377	0.00000	0.00000	9.45757	0.00000
0.7550	15.539	5.484	-3.080	1.528	0.000	-0.399	-3.824	4.283	-2.449	-0.215	0.000	0.251	0.00000	-2.92887	0.00000	0.00000	7.19416	0.00000
0.7575	15.499	5.140	-2.637	1.072	0.000	-0.190	-3.824	3.251	-2.542	-0.215	0.000	0.250	0.00000	-3.26196	0.00000	0.00000	8.08221	0.00000
0.7600	15.190	4.798	-2.766	0.799	0.000	-0.002	-3.781	3.080	-2.411	-0.214	0.000	0.250	0.00000	-3.00287	0.00000	0.00000	8.51706	0.00000
0.7625	15.454	3.748	-2.768	0.416	0.000	0.125	-3.784	2.914	-1.843	-0.215	0.000	0.249	0.00000	-4.31552	0.00000	0.00000	10.03483	0.00000
0.7650	15.453	4.097	-2.724	0.508	0.000	0.060	-3.608	2.053	-2.062	-0.214	0.000	0.251	0.00000	-4.13074	0.00000	0.00000	11.52981	0.00000
0.7675	15.451	4.270	-2.812	0.611	0.000	0.071	-3.652	2.739	-2.147	-0.214	0.000	0.252	0.00000	-3.55074	0.00000	0.00000	9.49698	0.00000
0.7700	15.496	4.789	-2.726	0.851	0.000	-0.125	-3.476	1.711	-2.151	-0.213	0.000	0.251	0.00000	-3.74507	0.00000	0.00000	12.09797	0.00000
0.7725	15.408	4.445	-2.768	0.655	0.000	0.013	-3.607	2.740	-2.147	-0.215	0.000	0.252	0.00000	-3.64245	0.00000	0.00000	9.46672	0.00000
0.7750	15.318	5.666	-2.811	1.979	0.000	-0.450	-3.824	3.252	-2.541	-0.213	0.000	0.251	0.00000	-2.50405	0.00000	0.00000	8.05065	0.00000
0.7775	15.276	4.971	-2.723	0.938	0.000	-0.087	-3.695	3.082	-2.368	-0.212	0.000	0.249	0.00000	-3.05568	0.00000	0.00000	8.19332	0.00000
0.7800	15.454	5.319	-2.812	1.218	0.000	-0.210	-3.648	3.942	-2.539	-0.214	0.000	0.248	0.00000	-2.80334	0.00000	0.00000	6.85463	0.00000
0.7825	15.187	6.187	-2.680	5.194	0.000	-1.963	-3.868	3.766	-2.497	-0.216	0.000	0.249	0.00000	-2.54380	0.00000	0.00000	7.58838	0.00000
0.7850	15.188	4.969	-2.944	0.922	0.000	-0.093	-3.781	2.221	-2.587	-0.211	0.000	0.253	0.00000	-3.04324	0.00000	0.00000	9.96361	0.00000
0.7875	15.055	4.798	-2.810	0.826	0.000	-0.041	-3.911	3.081	-2.543	-0.213	0.000	0.249	0.00000	-3.11936	0.00000	0.00000	8.50565	0.00000
0.7900	15.759	3.917	-2.682	0.503	0.000	0.067	-3.565	1.883	-1.974	-0.213	0.000	0.253	0.00000	-4.55198	0.00000	0.00000	12.57782	0.00000
0.7925	15.409	4.269	-2.857	0.579	0.000	0.051	-3.608	3.085	-1.972	-0.217	0.000	0.249	0.00000	-3.77140	0.00000	0.00000	9.05674	0.00000
0.7950	15.233	5.494	-2.678	1.565	0.000	-0.285	-3.824	2.909	-2.543	-0.213	0.000	0.250	0.00000	-2.59990	0.00000	0.00000	8.56261	0.00000
0.7975	15.145	4.798	-2.766	0.808	0.000	-0.015	-3.780	3.082	-2.410	-0.215	0.000	0.250	0.00000	-3.05603	0.00000	0.00000	8.55254	0.00000
0.8000	15.277	4.798	-2.590	0.801	0.000	-0.073	-3.955	3.597	-2.455	-0.215	0.000	0.248	0.00000	-3.43798	0.00000	0.00000	8.00980	0.00000
0.8025	15.144	4.799	-2.677	0.839	0.000	-0.038	-3.648	2.907	-2.761	-0.214	0.000	0.249	0.00000	-3.14232	0.00000	0.00000	7.55559	0.00000
0.8050	15.054	5.492	-2.900	1.571	0.000	-0.419	-3.650	3.596	-2.364	-0.216	0.000	0.250	0.00000	-2.86138	0.00000	0.00000	7.59974	0.00000
0.8075	15.103	5.324	-2.456	1.269	0.000	-0.182	-3.519	3.940	-2.320	-0.216	0.000	0.248	0.00000	-2.72767	0.00000	0.00000	6.94530	0.00000
0.8100	15.366	4.448	-2.591	0.631	0.000	0.027	-3.477	2.227	-2.061	-0.214	0.000	0.250	0.00000	-3.63882	0.00000	0.00000	10.42671	0.00000
0.8125	15.315	5.139	-2.769	1.202	0.000	-0.288	-3.650	2.739	-2.235	-0.216	0.000	0.250	0.00000	-3.41885	0.00000	0.00000	9.28924	0.00000
0.8150	15.406	4.275	-2.898	0.589	0.000	0.098	-3.609	2.741	-1.974	-0.214	0.000	0.250	0.00000	-3.24614	0.00000	0.00000	9.62761	0.00000
0.8175	15.187	5.841	-2.723	2.519	0.000	-0.687	-3.430	3.251	-2.626	-0.214	0.000	0.251	0.00000	-2.47811	0.00000	0.00000	6.93619	0.00000
0.8200	15.234	3.235	-2.498	0.312	0.000	0.211	-3.520	2.397	-2.148	-0.214	0.000	0.252	0.00000	-4.41856	0.00000	0.00000	9.94959	0.00000
0.8225	15.059	4.109	-2.542	0.484	0.000	0.161	-3.737	3.082	-2.410	-0.213	0.000	0.250	0.00000	-3.19485	0.00000	0.00000	8.38449	0.00000
0.8250	15.363	4.970	-2.325	1.039	0.000	-0.132	-3.476	2.568	-2.191	-0.214	0.000	0.252	0.00000	-3.34801	0.00000	0.00000	9.23696	0.00000
0.8275	15.585	3.751	-2.458	0.431	0.000	0.122	-3.696	2.396	-1.974	-0.217	0.000	0.251	0.00000	-4.45218	0.00000	0.00000	11.03447	0.00000
0.8300	15.453	3.754	-2.456	0.436	0.000	0.145	-3.565	2.569	-1.929	-0.215	0.000	0.250	0.00000	-4.11078	0.00000	0.00000	10.13807	0.00000
0.8325	15.058	5.498	-2.500	1.533	0.000	-0.280	-3.605	3.941	-2.451	-0.215	0.000	0.248	0.00000	-2.60392	0.00000	0.00000	6.93285	0.00000
0.8350	15.014	5.151	-2.632	1.055	0.000	-0.115	-3.822	3.595	-2.671	-0.215	0.000	0.250	0.00000	-2.79566	0.00000	0.00000	7.44621	0.00000
0.8375	15.318	4.448	-2.811	0.630	0.000	-0.030	-3.653	2.052	-2.064	-0.213	0.000	0.250	0.00000	-3.87745	0.00000	0.00000	11.53462	0.00000
0.8400	15.054	4.274	-2.678	0.597	0.000	0.014	-3.390	2.740	-2.102	-0.214	0.000	0.252	0.00000	-3.95008	0.00000	0.00000	8.84391	0.00000
0.8425	15.055	3.584	-2.674	0.380	0.000	0.149	-3.609	2.397	-1.930	-0.214	0.000	0.251	0.00000	-4.22648	0.00000	0.00000	10.78128	0.00000
0.8450	15.012	3.930	-2.543	0.474	0.000	0.101	-3.477	2.742	-2.060	-0.215	0.000	0.250	0.00000	-4.04486	0.00000	0.00000	9.11697	0.00000
0.8475	15.143	3.926	-2.677	0.482	0.000	0.083	-3.521	2.570	-1.973	-0.215	0.000	0.250	0.00000	-4.19115	0.00000	0.00000	9.90616	0.00000
0.8500	14.926	4.977	-2.720	0.887	0.000	-0.047	-3.736	3.252	-2.496	-0.215	0.000	0.252	0.00000	-2.84354	0.00000	0.00000	8.10242	0.00000
0.8525	15.100	4.977	-2.499	0.960	0.000	-0.055	-3.649	3.942	-2.452	-0.215	0.000	0.248	0.00000	-2.87276	0.00000	0.00000	7.00969	0.00000
0.8550	15.102	5.151	-2.500	1.071	0.000	-0.095	-3.738	3.425	-2.321	-0.214	0.000	0.251	0.00000	-2.75747	0.00000	0.00000	8.10600	0.00000
0.8575	14.884	5.156	-2.498	0.993	0.000	-0.081	-3.956	3.080	-2.410	-0.214	0.000	0.253	0.00000	-2.70026	0.00000	0.00000	9.12710	0.00000
0.8600	15.011	5.149	-2.544	1.141	0.000	-0.160	-3.824	4.112	-2.452	-0.216	0.000	0.248	0.00000	-2.91393	0.00000	0.00000	7.20566	0.00000
0.8625	15.316	4.099	-2.722	0.571	0.000	0.059	-3.519	2.913	-2.234	-0.214	0.000	0.251	0.00000	-3.92831	0.00000	0.00000	8.58583	0.00000
0.8650	15.272	4.618	-2.591	0.795	0.000	-0.121	-3.521	2.913	-1.928	-0.216	0.000	0.250	0.00000	-4.05891	0.00000	0.00000	9.24472	0.00000
0.8675	15.143	4.275	-2.457	0.615	0.000	0.009	-3.607	3.427	-2.189	-0.216	0.000	0.249	0.00000	-4.07334	0.00000	0.00000	8.08443	0.00000
0.8700	14.790	5.328	-2.631	1.291	0.000	-0.262	-3.562	3.423	-2.539	-0.216	0.000	0.250	0.00000	-2.79490	0.00000	0.00000	7.28522	0.00000
0.8725	14.970	4.806	-2.587	0.769	0.000	0.001	-3.781	3.252	-2.454	-0.215	0.000	0.250	0.00000	-2.96111	0.00000	0.00000	8.17182	0.00000
0.8750	15.277	4.628	-2.632	0.720	0.000	0.071	-3.826	3.597	-2.278	-0.215	0.000	0.249	0.00000	-2.87419	0.00000	0.00000	8.08557	0.00000
0.8775	14.791	5.496	-2.678	1.533	0.000	-0.475	-3.695	3.598	-2.234	-0.214	0.000	0.249	0.00000	-3.05797	0.00000	0.00000	7.82664	0.00000
0.8800	14.618	5.326	-2.543	1.239	0.000	-0.259	-3.649	3.252	-2.540	-0.213	0.000	0.251	0.00000	-2.91047	0.00000	0.00000	7.68163	0.00000
0.8825	15.145	3.755	-2.455	0.438	0.000	0.137	-3.653	2.570	-1.975	-0.213	0.000	0.249	0.00000	-4.14177	0.00000	0.00000	10.10156	0.00000
0.8850	14.920	4.971	-2.721	1.005	0.000	-0.172	-3.566	2.742	-1.886	-0.214	0.000	0.249	0.00000	-3.30260	0.00000	0.00000	9.68893	0.00000
0.8875	14.970	3.064	-2.409	0.277	0.000	0.197	-3.521	2.569	-2.062	-0.215	0.000	0.249	0.00000	-5.06988	0.00000	0.00000	9.53156	0.00000
0.8900	14.704	5.678	-2.453	1.920	0.000	-0.444	-3.738	3.252	-2.454	-0.214	0.000	0.249	0.00000	-2.46168	0.00000	0.00000	7.96628	0.00000
0.8925	14.884	3.765	-2.628	0.373	0.000	0.221	-3.868	3.939	-2.409	-0.215	0.000	0.249	0.00000	-3.14580	0.00000	0.00000	7.56727	0.00000
0.8950	14.663	4.632	-2.409	0.698	0.000	0.029	-3.780	4.282	-2.583	-0.216	0.000	0.247	0.00000	-3.17598	0.00000	0.00000	6.72913	0.00000
0.8975	14.617	4.807	-2.453	0.801	0.000	-0.047	-3.737	3.939	-2.451	-0.215	0.000	0.249	0.00000	-3.16280	0.00000	0.00000	7.23119	0.00000
0.9000	14.793	4.458	-2.586	0.615	0.000	0.046	-3.825	2.908	-2.412	-0.214	0.000	0.250	0.00000	-3.31241	0.00000	0.00000	8.89147	0.00000
0.9025	14.664	4.638	-2.540	0.646	0.000	0.083	-3.868	3.424	-2.498	-0.215	0.000	0.249	0.00000	-2.78401	0.00000	0.00000	7.96001	0.00000
0.9050	14.874	4.449	-2.720	0.729	0.000	-0.029	-3.346	2.396	-2.103	-0.214	0.000	0.252	0.00000	-3.67847	0.00000	0.00000	9.47382	0.00000
0.9075	14.969	4.280	-2.499	0.559	0.000	0.046	-3.476	2.225	-2.192	-0.215	0.000	0.250	0.00000	-3.77159	0.00000	0.00000	10.09531	0.00000
0.9100	14.968	3.585	-2.586	0.373	0.000	0.151	-3.436	1.709	-1.843	-0.214	0.000	0.253	0.00000	-4.26870	0.00000	0.00000	13.28199	0.00000
